# xmcd
#
# Track frame offsets:
#	150
#	33862
#	60832
#	102503
#	139638
#
# Disc length: 2655 seconds
#
# Revision: 1
# Processed by: cddbd v1.5.2PL0 Copyright (c) Steve Scherf et al.
# Submitted via: audiograbber 1.83.01
#
DISCID=360a5d05
DTITLE=Tony O'Connor - Sagittarius
DYEAR=1999
DGENRE=New Age
TTITLE0=Sagittarius Part 1
TTITLE1=Sagittarius Part 2
TTITLE2=Sagittarius Part 3
TTITLE3=Sagittarius Part 4
TTITLE4=Sagittarius Part 5
EXTD=
EXTT0=
EXTT1=
EXTT2=
EXTT3=
EXTT4=
PLAYORDER=
